<?xml version="1.0" standalone="no"?><!DOCTYPE svg PUBLIC "-//W3C//DTD SVG 1.1//EN" "http://www.w3.org/Graphics/SVG/1.1/DTD/svg11.dtd"><svg t="1526452942239" class="icon" style="" viewBox="0 0 1024 1024" version="1.1" xmlns="http://www.w3.org/2000/svg" p-id="1920" xmlns:xlink="http://www.w3.org/1999/xlink" width="200" height="200"><defs><style type="text/css"></style></defs><path d="M512 192C288.672 192 95.104 322.048 0 512c95.104 189.952 288.672 320 512 320 223.328 0 416.864-130.048 512-320C928.896 322.048 735.328 192 512 192zM764.448 361.696c60.16 38.368 111.136 89.76 149.44 150.304-38.304 60.512-89.28 111.936-149.44 150.304C688.864 710.528 601.568 736 512 736c-89.568 0-176.864-25.472-252.448-73.696C199.392 623.936 148.416 572.512 110.112 512c38.304-60.512 89.28-111.936 149.44-150.304 3.904-2.496 7.872-4.928 11.872-7.296C261.44 381.728 256 411.232 256 442.016c0 141.376 114.624 256 256 256s256-114.624 256-256c0-30.784-5.44-60.256-15.392-87.584C756.576 356.768 760.544 359.2 764.448 361.696zM512 410.016c0 53.024-42.976 96-96 96s-96-42.976-96-96 42.976-96 96-96S512 356.992 512 410.016z" p-id="1921"></path></svg>