<?xml version="1.0" standalone="no"?><!DOCTYPE svg PUBLIC "-//W3C//DTD SVG 1.1//EN" "http://www.w3.org/Graphics/SVG/1.1/DTD/svg11.dtd"><svg t="1544154110046" class="icon" style="" viewBox="0 0 1024 1024" version="1.1" xmlns="http://www.w3.org/2000/svg" p-id="1782" xmlns:xlink="http://www.w3.org/1999/xlink" width="300" height="300"><defs><style type="text/css"></style></defs><path d="M1022.293333 196.266667c0-6.826667-2.56-12.8-6.826666-17.066667-2.56-2.56-55.466667-64.853333-146.773334-95.573333-34.133333-11.946667-69.12-17.066667-104.106666-17.066667-104.96 0-195.413333 52.906667-254.293334 97.28-58.88-46.08-151.04-99.84-256-99.84-34.986667 0-69.973333 5.973333-104.106666 17.92-90.453333 31.573333-142.506667 94.72-144.213334 97.28-3.413333 4.266667-5.973333 10.24-5.973333 17.066667v634.026666l64.853333 83.626667c3.413333 10.24 12.8 17.066667 23.893334 17.066667 3.413333 0.853333 7.68-0.853333 11.946666-2.56 21.333333-5.973333 129.706667-34.133333 215.893334-34.133334 39.253333 0 69.12 5.973333 86.186666 17.066667 7.68 5.973333 11.946667 11.093333 14.506667 19.626667 0 14.506667 11.093333 25.6 24.746667 26.453333h23.893333c26.453333 0 65.706667-0.853333 105.813333-3.413333 1.706667 0.853333 3.413333 0.853333 5.973334 0.853333 11.946667 0 21.333333-8.533333 24.746666-20.48 2.56-11.093333 8.533333-19.626667 19.626667-26.453333 17.92-11.093333 46.08-17.066667 82.773333-17.066667 84.48 0 184.32 28.16 214.186667 36.693333 3.413333 1.706667 7.68 3.413333 11.946667 2.56h0.853333c10.24 0 18.773333-6.826667 23.04-16.213333l68.266667-84.48V197.12l-0.853334-0.853333z m-50.346666 11.946666v573.44c-39.253333-15.36-98.986667-36.693333-164.693334-49.493333-39.253333-8.533333-77.653333-11.946667-111.786666-11.946667-64.853333 0-118.613333 14.506667-160.426667 42.666667v-552.106667c76.8-59.733333 153.6-90.453333 229.546667-90.453333 29.866667 0 59.733333 5.12 87.893333 14.506667 62.293333 20.48 104.106667 57.173333 119.466667 73.386666z m-645.12 570.88c75.946667 0 132.266667 20.48 166.4 60.586667l2.56 2.56 1.706666 1.706667c0.853333 0.853333 0.853333 0.853333 1.706667 0.853333 0.853333 0.853333 1.706667 0.853333 1.706667 0.853333l1.706666 0.853334c0.853333 0 2.56 0.853333 2.56 0.853333l1.706667 0.853333c0.853333 0 0.853333 0 1.706667 0.853334h5.973333c0.853333 0 2.56 0 2.56-0.853334 0.853333 0 0.853333 0 1.706667-0.853333 0.853333 0 2.56-0.853333 2.56-0.853333s0.853333-0.853333 1.706666-0.853334l1.706667-0.853333c0.853333 0 0.853333-0.853333 0.853333-0.853333 0.853333-0.853333 0.853333-0.853333 1.706667-0.853334l0.853333-0.853333 3.413334-3.413333c33.28-43.52 88.746667-64.853333 164.693333-64.853334 42.666667 0 133.12 7.68 260.266667 58.88l-34.133334 41.813334c-23.04-6.826667-65.706667-17.92-114.346666-25.6-38.4-6.826667-72.533333-9.386667-102.4-9.386667-46.08 0-82.773333 8.533333-108.373334 23.893333-16.213333 10.24-28.16 23.04-35.84 39.253334-36.693333 2.56-71.68 2.56-95.573333 2.56h-5.12c-5.973333-15.36-17.066667-28.16-31.573333-37.546667-24.746667-17.066667-64-25.6-113.493334-25.6-82.773333 0-177.493333 23.04-216.746666 32.426667l-31.573334-40.96c56.32-21.333333 160.426667-54.613333 259.413334-54.613334z m-0.853334-54.613333c-34.133333 0-71.68 3.413333-110.933333 11.093333-65.706667 11.946667-124.586667 31.573333-163.84 46.933334v-574.293334c15.36-16.213333 56.32-53.76 116.906667-75.093333 28.16-10.24 58.026667-15.36 88.746666-15.36 75.946667 0 152.746667 30.72 231.253334 93.013333v554.666667c-42.666667-27.306667-97.28-40.96-162.133334-40.96z" p-id="1783"></path></svg>