<?xml version="1.0" standalone="no"?><!DOCTYPE svg PUBLIC "-//W3C//DTD SVG 1.1//EN" "http://www.w3.org/Graphics/SVG/1.1/DTD/svg11.dtd"><svg t="1544168173342" class="icon" style="" viewBox="0 0 1024 1024" version="1.1" xmlns="http://www.w3.org/2000/svg" p-id="3139" xmlns:xlink="http://www.w3.org/1999/xlink" width="300" height="300"><defs><style type="text/css"></style></defs><path d="M421.7 924.9c-9.1 0-17.6-4.6-22.6-12.4l-90.2-139.7H111.4c-31.5 0-57.1-26.3-57.1-58.6V314.6c0-32.3 25.6-58.6 57.1-58.6h630.3c31.5 0 57.1 26.3 57.1 58.6v399.6c0 32.3-25.6 58.6-57.1 58.6H527.2l-82.4 138.8c-4.8 8.1-13.2 13.1-22.6 13.2-0.1 0.1-0.3 0.1-0.5 0.1zM111.4 296.4c-9.2 0-16.7 8.2-16.7 18.2v399.6c0 10 7.5 18.2 16.7 18.2H331l90.3 139.8 83-139.8h237.5c9.2 0 16.7-8.2 16.7-18.2V314.6c0-10-7.5-18.2-16.7-18.2H111.4z" p-id="3140"></path><path d="M895.2 610.9h-56.9c-11.2 0-20.2-9-20.2-20.2s9-20.2 20.2-20.2h56.9c9.2 0 16.7-8.2 16.7-18.2V152.7c0-10-7.5-18.2-16.7-18.2H264.9c-9.2 0-16.7 8.2-16.7 18.2v54.6c0 11.2-9 20.2-20.2 20.2s-20.2-9-20.2-20.2v-54.6c0-32.3 25.6-58.6 57.1-58.6h630.3c31.5 0 57.1 26.3 57.1 58.6v399.6c0 32.4-25.6 58.6-57.1 58.6z" p-id="3141"></path><path d="M642.6 453.3H203.2c-11.2 0-20.2-9-20.2-20.2s9-20.2 20.2-20.2h439.3c11.2 0 20.2 9 20.2 20.2s-9 20.2-20.1 20.2zM559.5 610.9H276.8c-11.2 0-20.2-9-20.2-20.2s9-20.2 20.2-20.2h282.8c11.2 0 20.2 9 20.2 20.2s-9.1 20.2-20.3 20.2z" p-id="3142"></path></svg>