<?xml version="1.0" standalone="no"?><!DOCTYPE svg PUBLIC "-//W3C//DTD SVG 1.1//EN" "http://www.w3.org/Graphics/SVG/1.1/DTD/svg11.dtd"><svg t="1550134305037" class="icon" style="" viewBox="0 0 1024 1024" version="1.1" xmlns="http://www.w3.org/2000/svg" p-id="23697" xmlns:xlink="http://www.w3.org/1999/xlink" width="200" height="200"><defs><style type="text/css"></style></defs><path d="M512 136.1477269c207.1022731 0 375.8522731 168.75 375.8522731 375.8522731S719.1022731 887.8522731 512 887.8522731 136.1477269 719.1022731 136.1477269 512 304.8977269 136.1477269 512 136.1477269M512 90.125C278.05113613 90.125 90.125 278.05113613 90.125 512s187.92613613 421.875 421.875 421.875 421.875-187.92613613 421.875-421.875S745.94886387 90.125 512 90.125z" fill="#515151" p-id="23698"></path><path d="M360.5085231 439.13068152m-53.69318234 0a53.69318152 53.69318152 0 1 0 107.38636386 0 53.69318152 53.69318152 0 1 0-107.38636386 0Z" fill="#515151" p-id="23699"></path><path d="M636.64488613 439.13068152m-53.69318151 0a53.69318152 53.69318152 0 1 0 107.38636386 0 53.69318152 53.69318152 0 1 0-107.38636386 0Z" fill="#515151" p-id="23700"></path><path d="M659.65625 699.92613613h-63.28125c-82.45738613-1.91761387-103.55113613-1.91761387-233.94886387 0-13.42329538 0-23.01136387-9.58806848-23.01136303-23.01136303s9.58806848-23.01136387 23.01136303-23.01136385H661.57386387c13.42329538 0 23.01136387 11.50568152 23.01136303 23.01136385-1.91761387 13.42329538-13.42329538 23.01136387-24.9289769 23.01136303z" fill="#515151" p-id="23701"></path></svg>