<?xml version="1.0" standalone="no"?><!DOCTYPE svg PUBLIC "-//W3C//DTD SVG 1.1//EN" "http://www.w3.org/Graphics/SVG/1.1/DTD/svg11.dtd"><svg t="1528881423507" class="icon" style="" viewBox="0 0 1024 1024" version="1.1" xmlns="http://www.w3.org/2000/svg" p-id="17513" xmlns:xlink="http://www.w3.org/1999/xlink" width="200" height="200"><defs><style type="text/css"></style></defs><path d="M832.721047 64.180741 190.457238 64.180741c-69.665663 0-126.341476 56.67786-126.341476 126.341476l0 422.474011 570.298777 0 87.336114-117.968785-84.72873-113.405863L370.451682 381.621581l0-67.131957 265.265526 0 86.032422-86.031399L254.438435 228.458225l0 231.373625 312.466548 0 27.53717 34.685987-27.40414 32.44597L148.843468 526.963807 148.843468 190.522218c0-22.946618 18.667152-41.61377 41.61377-41.61377l642.263809 0c22.946618 0 41.612747 18.667152 41.612747 41.61377l0 642.263809c0 22.944572-18.666128 41.612747-41.612747 41.612747L190.457238 874.398774c-22.945595 0-41.61377-18.668175-41.61377-41.612747L148.843468 694.471868 64.114738 694.471868l0 138.315182c0 69.664639 56.676837 126.341476 126.341476 126.341476l642.263809 0c69.663616 0 126.341476-56.676837 126.341476-126.341476L959.0615 190.522218C959.062524 120.858602 902.384663 64.180741 832.721047 64.180741z" p-id="17514" data-spm-anchor-id="a313x.7781069.0.i13" class="selected"></path><path d="M373.39778 694.346001l-52.555983 52.837392 0 64.428382-30.163997-17.295921L290.6778 747.180324l-52.79646-52.834322 35.850509 0 32.026414 32.197306 32.027437-32.197306L373.39778 694.346001z" p-id="17515"></path><path d="M507.579829 694.346001l-22.198581 22.36845-67.105351 0 0 17.624403 74.731028 0-20.335141 20.334117-54.395888 0 0 17.284665 85.744873 0-22.367427 22.36845-93.54042 0 0-99.980086L507.579829 694.346001z" p-id="17516"></path><path d="M638.568139 811.611775l-30.16502-17.116843 0-28.807093-60.83453 0 0 28.638247-30.163997-0.169869 0-77.441766 22.706141-22.36845 75.748195 0 22.707165 22.36845L638.566092 811.611775zM608.404142 743.658104l0-26.942629-60.83453 0 0 26.942629L608.404142 743.658104z" p-id="17517"></path><path d="M787.177781 811.611775l-30.162974-17.337877L757.014808 769.795391l-9.091052-8.850575-57.676607 0 0 33.382295-30.162974 0 0-99.980086 104.386442 0 22.706141 30.841426-17.284665 23.216771 17.284665 17.284665L787.176758 811.611775zM756.17672 727.093846l-7.852852-10.379395-58.07672 0 0 21.521153 57.846476 0L756.17672 727.093846z" p-id="17518"></path></svg>