<?xml version="1.0" standalone="no"?><!DOCTYPE svg PUBLIC "-//W3C//DTD SVG 1.1//EN" "http://www.w3.org/Graphics/SVG/1.1/DTD/svg11.dtd"><svg t="1539769396724" class="icon" style="" viewBox="0 0 1024 1024" version="1.1" xmlns="http://www.w3.org/2000/svg" p-id="2078" xmlns:xlink="http://www.w3.org/1999/xlink" width="300" height="300"><defs><style type="text/css"></style></defs><path d="M899.072 967.68H124.928c-40.71936 0-73.728-33.00864-73.728-73.728V119.808C51.2 79.08864 84.20864 46.08 124.928 46.08H235.52v268.288h552.96V46.08h110.592c40.71936 0 73.728 33.00864 73.728 73.728v774.144c0 40.71936-33.00864 73.728-73.728 73.728z m-83.968-438.272c0-40.71936-33.00864-73.728-73.728-73.728L281.6 455.2704c-40.71936 0-73.728 33.00864-73.728 73.728v276.48c0 40.71936 33.00864 73.728 73.728 73.728h460.8c40.71936 0 73.728-33.00864 73.728-73.728l-1.024-276.0704z m-148.2752 270.5408l-310.4768-0.2048c-34.6112 0-61.44-26.8288-61.44-61.44v-141.312c0-34.6112 26.8288-61.44 61.44-61.44h311.296c34.6112 0 61.8496 27.0336 61.8496 61.64992V737.28c0 34.6112-28.0576 62.6688-62.6688 62.6688zM694.272 201.728v4.096h-0.2048c-2.11456 32.01536-28.68736 57.344-61.2352 57.344s-59.1104-25.32864-61.23008-57.344h-0.20992v-102.4h0.20992C573.7216 71.40864 600.27904 46.08 632.832 46.08s59.12064 25.32864 61.2352 57.344h0.2048v98.304z" fill="" p-id="2079"></path></svg>