<?xml version="1.0" standalone="no"?><!DOCTYPE svg PUBLIC "-//W3C//DTD SVG 1.1//EN" "http://www.w3.org/Graphics/SVG/1.1/DTD/svg11.dtd"><svg t="1538992456484" class="icon" style="" viewBox="0 0 1024 1024" version="1.1" xmlns="http://www.w3.org/2000/svg" p-id="2107" xmlns:xlink="http://www.w3.org/1999/xlink" width="260" height="260"><defs><style type="text/css"></style></defs><path d="M520.651618 586.489313a44.262272 44.262272 0 0 0 44.887285-43.637259V44.887285a44.887285 44.887285 0 0 0-89.774571 0v498.021588a44.262272 44.262272 0 0 0 44.887286 43.63726z m0 0l417.963126-333.302297a508.703626 508.703626 0 0 0-217.447646-180.287792 45.455479 45.455479 0 0 0-59.376219 21.875449 43.182705 43.182705 0 0 0 22.727739 57.728458 410.462972 410.462972 0 0 1 248.47101 374.155409A416.372184 416.372184 0 0 1 511.390064 936.666957a416.372184 416.372184 0 0 1-421.599565-410.008417A411.031166 411.031166 0 0 1 334.511432 154.662266a43.125885 43.125885 0 0 0 21.87545-57.955735 45.455479 45.455479 0 0 0-59.603497-21.591353 508.419529 508.419529 0 0 0-214.095304 180.287793 486.203164 486.203164 0 0 0-42.500873 464.839088 495.066982 495.066982 0 0 0 109.547704 158.071427A510.635483 510.635483 0 0 0 312.522345 984.906584a526.374443 526.374443 0 0 0 398.133173 0 510.521845 510.521845 0 0 0 162.560156-106.593098 495.066982 495.066982 0 0 0 109.604523-158.071427 486.203164 486.203164 0 0 0-43.978176-466.998224z m0 0" p-id="2108" fill="#606266"></path></svg>