<?xml version="1.0" standalone="no"?><!DOCTYPE svg PUBLIC "-//W3C//DTD SVG 1.1//EN" "http://www.w3.org/Graphics/SVG/1.1/DTD/svg11.dtd"><svg t="1532675481286" class="icon" style="" viewBox="0 0 1024 1024" version="1.1" xmlns="http://www.w3.org/2000/svg" p-id="1206" xmlns:xlink="http://www.w3.org/1999/xlink" width="200" height="200"><defs><style type="text/css"></style></defs><path d="M394.395 795.891c-26.407 0-47.89 21.482-47.89 47.891 0 26.407 21.484 47.891 47.89 47.891 26.408 0 47.893-21.483 47.893-47.891C442.287 817.373 420.803 795.891 394.395 795.891zM631.334 42.069 157.458 42.069c-39.865 0-72.298 32.433-72.298 72.298l0 795.266c0 39.866 32.433 72.298 72.298 72.298l473.875 0c39.865 0 72.297-32.432 72.297-72.298L703.63 114.367C703.631 74.502 671.199 42.069 631.334 42.069zM157.458 90.268l473.875 0c13.289 0 24.1 10.812 24.1 24.1l0 595.808L133.359 710.176 133.359 114.367C133.359 101.079 144.17 90.268 157.458 90.268zM631.334 933.731 157.458 933.731c-13.288 0-24.1-10.81-24.1-24.099L133.358 762.5l522.075 0 0 147.133C655.434 922.922 644.623 933.731 631.334 933.731z" p-id="1207"></path></svg>