<?xml version="1.0" standalone="no"?><!DOCTYPE svg PUBLIC "-//W3C//DTD SVG 1.1//EN" "http://www.w3.org/Graphics/SVG/1.1/DTD/svg11.dtd"><svg t="1528883222578" class="icon" style="" viewBox="0 0 1024 1024" version="1.1" xmlns="http://www.w3.org/2000/svg" p-id="9448" xmlns:xlink="http://www.w3.org/1999/xlink" width="200" height="200"><defs><style type="text/css"></style></defs><path d="M614.687242 616.405885l-81.864496 0 0 81.864496 81.864496 0L614.687242 616.405885zM492.300844 475.701283l-81.864496 0 0 81.864496 81.864496 0L492.300844 475.701283zM614.687242 475.701283l-81.864496 0 0 81.864496 81.864496 0L614.687242 475.701283zM859.463108 475.701283l-81.864496 0 0 81.864496 81.864496 0L859.463108 475.701283zM859.463108 616.405885l-81.864496 0 0 81.864496 81.864496 0L859.463108 616.405885zM737.075687 475.701283l-81.864496 0 0 81.864496 81.864496 0L737.075687 475.701283zM492.300844 616.405885l-81.864496 0 0 81.864496 81.864496 0L492.300844 616.405885zM737.075687 616.405885l-81.864496 0 0 81.864496 81.864496 0L737.075687 616.405885zM247.526001 616.405885l-81.864496 0 0 81.864496 81.864496 0L247.526001 616.405885zM247.526001 757.110487l-81.864496 0 0 81.864496 81.864496 0L247.526001 757.110487zM918.247956 165.442006 812.412512 165.442006 812.412512 91.962481c0-14.145162-11.466146-25.611308-25.611308-25.611308S761.189897 77.818343 761.189897 91.962481l0 73.479525L274.482957 165.442006 274.482957 91.962481c0-14.145162-11.467169-25.611308-25.611308-25.611308s-25.611308 11.467169-25.611308 25.611308l0 73.479525L106.876658 165.442006c-14.145162 0-25.611308 11.467169-25.611308 25.611308l0 740.02025c0 14.145162 11.467169 25.611308 25.611308 25.611308l811.371298 0c14.145162 0 25.611308-11.466146 25.611308-25.611308L943.859263 191.053314C943.859263 176.909176 932.393117 165.442006 918.247956 165.442006zM892.636648 905.462257 132.488988 905.462257 132.488988 410.394904l760.14766 0L892.636648 905.462257zM892.636648 359.171266 132.488988 359.171266l0-142.505621 90.771353 0 0 71.458495c0 14.145162 11.467169 25.611308 25.611308 25.611308s25.611308-11.467169 25.611308-25.611308l0-71.458495L761.189897 216.665645l0 71.458495c0 14.145162 11.466146 25.611308 25.611308 25.611308s25.611308-11.467169 25.611308-25.611308l0-71.458495 80.223113 0L892.635625 359.171266zM247.526001 475.701283l-81.864496 0 0 81.864496 81.864496 0L247.526001 475.701283zM369.913423 616.405885l-81.864496 0 0 81.864496 81.864496 0L369.913423 616.405885zM369.913423 475.701283l-81.864496 0 0 81.864496 81.864496 0L369.913423 475.701283zM369.913423 757.110487l-81.864496 0 0 81.864496 81.864496 0L369.913423 757.110487zM492.301867 757.110487l-81.865519 0 0 81.864496 81.865519 0L492.301867 757.110487z" p-id="9449"></path></svg>