<?xml version="1.0" standalone="no"?><!DOCTYPE svg PUBLIC "-//W3C//DTD SVG 1.1//EN" "http://www.w3.org/Graphics/SVG/1.1/DTD/svg11.dtd"><svg t="1526460037356" class="icon" style="" viewBox="0 0 1027 1024" version="1.1" xmlns="http://www.w3.org/2000/svg" p-id="4070" xmlns:xlink="http://www.w3.org/1999/xlink" width="200.5859375" height="200"><defs><style type="text/css"></style></defs><path d="M372.819904 946.834092l48.722301-56.253302 7.531001-7.465514c44.989544-41.256787 116.23936-37.52403 157.496146 7.465514l48.787788 56.253302c26.194785-7.531001 52.520545-18.794758 75.04806-29.99303l-3.798244-75.04806v-11.263757c3.798244-63.784302 56.253302-108.773846 120.037604-105.04109l75.04806 3.798244c11.263758-22.527515 22.527515-48.787788 30.058516-75.04806l-56.253301-48.787787-7.465514-7.531001c-41.322274-44.989544-37.52403-116.23936 7.465514-157.561634l56.253301-48.787788a449.63349 449.63349 0 0 0-30.058516-75.04806l-75.04806 3.798244h-11.198271c-63.849789-3.798244-108.839333-56.253302-105.041089-120.037604l3.732757-75.04806a444.198072 444.198072 0 0 0-74.982573-29.927542l-48.722301 56.253302-7.531001 7.465513c-45.055031 41.322274-116.304847 37.52403-157.561633-7.465513l-48.787788-56.253302c-18.729272 7.465514-44.989544 18.729272-75.04806 33.725786l3.732757 75.04806v11.263758c-3.732757 63.718815-56.187815 108.773846-120.037604 105.041089l-74.982573-3.798244a455.199882 455.199882 0 0 0-29.993029 75.04806l56.253301 48.787788 7.465514 7.531001c41.256787 45.055031 37.52403 116.304847-7.465514 157.561634l-56.253301 48.7223c7.531001 26.260272 18.794758 52.520545 29.993029 75.04806l75.04806-3.798244h11.329245c63.784302 3.798244 108.708359 56.253302 105.041089 120.037604l-3.798244 75.04806c26.194785 7.465514 48.722301 14.996515 74.982573 26.260273z m-150.09612-14.996515l3.798244-97.575575a40.732891 40.732891 0 0 0-33.791273-41.256787h-3.732757l-97.510089 3.732757a39.423152 39.423152 0 0 1-33.791273-18.794759 429.267045 429.267045 0 0 1-56.253301-135.034118c-3.732757-14.996515 0-26.260272 11.263757-37.52403l75.048061-67.451573a40.208996 40.208996 0 0 0 3.667269-52.520544l-3.667269-3.732757L12.641606 414.163132c-11.263758-7.531001-14.931028-22.527515-11.263758-37.52403a429.398019 429.398019 0 0 1 56.318788-135.034119 39.357665 39.357665 0 0 1 33.791273-18.729271l97.510089 3.732757a40.863865 40.863865 0 0 0 41.322274-33.791274v-3.732756l-3.798244-97.575576c0-14.996515 7.465514-29.993029 22.527515-33.791273C305.237358 27.724561 350.357876 12.728046 384.083662 1.464289c14.996515-3.798244 26.194785 0 37.458543 11.263757l67.517059 75.04806a40.143509 40.143509 0 0 0 52.520545 3.732757l3.798243-3.732757L612.895112 12.728046c7.465514-11.263758 22.527515-14.996515 37.458543-11.263757a429.59448 429.59448 0 0 1 135.099605 56.253301 39.423152 39.423152 0 0 1 18.729272 33.791273l-3.732757 97.575576c0 22.527515 14.996515 37.52403 33.791273 41.256786h3.732757l97.510088-3.732756c14.996515 0 26.260272 7.531001 33.791273 18.729271 26.260272 41.256787 45.055031 86.311818 56.253302 135.099605 3.798244 14.996515 0 26.260272-11.263758 37.52403l-75.04806 67.51706a40.274482 40.274482 0 0 0-3.798244 52.520544l3.798244 3.798244 75.04806 67.517059c11.263758 7.531001 14.996515 22.527515 11.263758 37.52403a430.249349 430.249349 0 0 1-56.253302 135.099606 39.292178 39.292178 0 0 1-33.791273 18.729271l-97.510088-3.732757a40.863865 40.863865 0 0 0-41.256787 33.791274v3.732756l3.798244 97.575576a39.292178 39.292178 0 0 1-18.794759 33.725786 427.695358 427.695358 0 0 1-135.034118 56.253302c-14.996515 3.732757-26.260272 0-37.52403-11.263758l-67.517059-75.04806a40.143509 40.143509 0 0 0-52.520545-3.732757l-3.798244 3.732757-67.517059 74.917086c-7.465514 11.263758-22.462028 14.996515-37.458543 11.263758a429.59448 429.59448 0 0 1-135.099606-56.253302c-14.931028-3.798244-22.527515-18.794758-22.527515-33.791273z m285.130238-191.352907a225.733563 225.733563 0 0 1-225.078693-225.078693 225.79905 225.79905 0 0 1 225.078693-225.078693 225.733563 225.733563 0 0 1 225.078694 225.078693 225.733563 225.733563 0 0 1-225.078694 225.078693z m0-74.982573c82.579061 0 150.09612-67.517059 150.096121-150.09612S590.433083 365.375344 507.854022 365.375344c-82.513574 0-150.030633 67.517059-150.030633 150.030633s67.517059 150.09612 150.030633 150.09612z m0 0" fill="" p-id="4071"></path></svg>