<?xml version="1.0" standalone="no"?><!DOCTYPE svg PUBLIC "-//W3C//DTD SVG 1.1//EN" "http://www.w3.org/Graphics/SVG/1.1/DTD/svg11.dtd"><svg t="1550134295404" class="icon" style="" viewBox="0 0 1024 1024" version="1.1" xmlns="http://www.w3.org/2000/svg" p-id="23588" xmlns:xlink="http://www.w3.org/1999/xlink" width="200" height="200"><defs><style type="text/css"></style></defs><path d="M837.22673387 186.81660907C657.8782816 7.4681568 366.1043808 7.4681568 186.79927147 186.77326613 7.459488 366.095712 7.4768256 657.8869504 186.81660907 837.22673387c179.28777173 179.30510933 471.06167147 179.30510933 650.3841184-0.0346752C1016.5231744 657.8869504 1016.5058368 366.1130496 837.22673387 186.81660907zM787.0431488 787.0431488c-151.64302187 151.65169067-398.43460693 151.66902827-550.07762987 0.0173376-151.68636587-151.67769707-151.66035947-398.46928213 0-550.12097387 151.64302187-151.64302187 398.41726933-151.66035947 550.09496747 0.0173376C938.71217813 388.60854187 938.69484053 635.40012693 787.0431488 787.0431488zM340.95624107 436.8849952l-30.79151787 0c-2.71332907 0-5.23594453-1.5603808-6.3975616-3.97897173-0.47678293-0.97957227-0.71084053-2.05450133-0.71084053-3.1120928 0-1.5863872 0.53746453-3.146768 1.5170368-4.38640427l66.70628586-84.56397867c1.3696672-1.7077504 3.3981632-2.66998507 5.59136534-2.66998506s4.21302827 0.96223467 5.55669013 2.63530986l66.72362347 84.58131627c1.6384 2.05450133 1.98515093 5.0278944 0.86687786 7.44648427-1.26564267 2.53995307-3.71023893 4.04832213-6.423568 4.04832213l-30.80885546 0c-1.5690496 0-3.0427424-0.71950933-4.01364694-1.95047573l-31.90112213-40.43120427-31.90979093 40.43120427C343.98164693 436.16548587 342.51662187 436.8849952 340.95624107 436.8849952zM727.57529707 425.3901888c1.6384 2.05450133 1.98515093 5.0278944 0.86687786 7.44648427-1.26564267 2.53995307-3.71023893 4.04832213-6.423568 4.04832213l-30.80885546 0c-1.5690496 0-3.0427424-0.71950933-4.01364694-1.95047573l-31.90112213-40.43120427-31.90979093 40.43120427c-0.97090347 1.22229867-2.43592853 1.95047573-4.00497814 1.95047573l-30.79151786 0c-2.71332907 0-5.23594453-1.5603808-6.3975616-3.97897173-0.47678293-0.97957227-0.71084053-2.05450133-0.71084054-3.1120928 0-1.5863872 0.53746453-3.146768 1.5170368-4.38640427l66.70628587-84.56397867c1.3696672-1.7077504 3.3981632-2.66998507 5.59136533-2.66998506s4.21302827 0.96223467 5.55669014 2.63530986L727.57529707 425.3901888zM711.26931627 607.69469653c-33.31413333 77.0394752-111.3331808 126.81562773-198.75785814 126.81562774-89.29713387 0-167.77562773-50.02754667-199.9368128-127.45711787-5.51334613-13.2632384 0.77152213-28.48562133 14.04342827-33.99029867 3.2594624-1.35233067 6.640288-1.99381973 9.960432-1.99381973 10.19448853 0 19.8688512 6.03347307 24.02119787 16.03724907 24.06454187 57.95081493 83.6971008 95.39128853 151.90308586 95.39128853 66.66294187 0 125.94008-37.46648 151.01886934-95.45197013 5.70405973-13.1852192 21.01313067-19.26203627 34.18968-13.54930774C710.90522773 579.2004064 716.973376 594.50947733 711.26931627 607.69469653z" p-id="23589"></path></svg>