<?xml version="1.0" standalone="no"?><!DOCTYPE svg PUBLIC "-//W3C//DTD SVG 1.1//EN" "http://www.w3.org/Graphics/SVG/1.1/DTD/svg11.dtd"><svg t="1526459163413" class="icon" style="" viewBox="0 0 1024 1024" version="1.1" xmlns="http://www.w3.org/2000/svg" p-id="3194" xmlns:xlink="http://www.w3.org/1999/xlink" width="200" height="200"><defs><style type="text/css"></style></defs><path d="M134.4 369.066667h322.133333c21.333333 0 38.4-17.066667 38.4-38.4s-17.066667-38.4-38.4-38.4H134.4c-21.333333 0-38.4 17.066667-38.4 38.4s17.066667 38.4 38.4 38.4zM138.666667 509.866667c-21.333333 0-38.4 17.066667-38.4 38.4s17.066667 38.4 38.4 38.4h166.4c21.333333 0 38.4-17.066667 38.4-38.4s-17.066667-38.4-38.4-38.4H138.666667zM917.333333 563.2c-14.933333-14.933333-38.4-14.933333-53.333333 0l-123.733333 123.733333V241.066667c0-21.333333-17.066667-38.4-38.4-38.4s-38.4 17.066667-38.4 38.4v445.866666l-121.6-121.6c-14.933333-14.933333-38.4-14.933333-53.333334 0s-14.933333 38.4 0 53.333334l181.333334 181.333333c6.4 10.666667 19.2 17.066667 32 17.066667s23.466667-6.4 29.866666-14.933334L917.333333 618.666667c14.933333-14.933333 14.933333-40.533333 0-55.466667zM456.533333 744.533333H134.4c-21.333333 0-38.4 17.066667-38.4 38.4s17.066667 38.4 38.4 38.4h322.133333c21.333333 0 38.4-17.066667 38.4-38.4s-17.066667-38.4-38.4-38.4z" p-id="3195"></path></svg>