<?xml version="1.0" standalone="no"?><!DOCTYPE svg PUBLIC "-//W3C//DTD SVG 1.1//EN" "http://www.w3.org/Graphics/SVG/1.1/DTD/svg11.dtd"><svg t="1550474121785" class="icon" style="" viewBox="0 0 1107 1024" version="1.1" xmlns="http://www.w3.org/2000/svg" p-id="12211" xmlns:xlink="http://www.w3.org/1999/xlink" width="216.2109375" height="200"><defs><style type="text/css"></style></defs><path d="M263.92727305 961.91818174V363.25454521c0-23.87045479-18.34772695-42.23863653-40.37727305-42.23863652H102.39772695c-22.00909131 0-40.37727305 20.18863652-40.37727216 42.23863652v598.66363653h201.90681826z m256.9704539 0V106.16136347c0-23.89090869-18.34772695-44.07954521-40.37727216-44.07954521h-121.15227305c-22.02954521 0-40.37727305 20.18863652-40.37727305 44.07954521v855.75681827h201.90681826z m256.97045479 0V583.61136347c0-23.87045479-18.34772695-44.05909131-40.37727305-44.05909042h-121.13181738c-22.02954521 0-40.39772695 20.18863652-40.39772783 44.05909042v378.30681827h201.90681826z m256.97045479 0V363.25454521c0-23.87045479-18.34772695-42.23863653-40.37727305-42.23863652h-121.15227217c-22.00909131 0-40.37727305 20.18863652-40.37727305 42.23863652v598.66363653h201.90681827z" p-id="12212"></path></svg>