<?xml version="1.0" standalone="no"?><!DOCTYPE svg PUBLIC "-//W3C//DTD SVG 1.1//EN" "http://www.w3.org/Graphics/SVG/1.1/DTD/svg11.dtd"><svg t="1539330286017" class="icon" style="" viewBox="0 0 1024 1024" version="1.1" xmlns="http://www.w3.org/2000/svg" p-id="1164" xmlns:xlink="http://www.w3.org/1999/xlink" width="200" height="200"><defs><style type="text/css"></style></defs><path d="M840.840982 904.20666V165.06543L723.992717 63.221904 335.041194 208.571293v36.348859l353.213577-119.036093v831.670623h235.132229V904.20666h-82.546018zM208.484823 676.503635l185.208189-37.050848v-93.989651l-185.208189 48.720631v82.319868z m0 282.309714h185.208189v-98.617042l-185.208189 13.434987v85.182055z m0-141.617392l185.208189-17.893532v-93.823875l-185.208189 31.136137v80.58127z m0-284.076964l185.208189-51.02v-97.581456l-185.208189 62.661132v85.940324z m390.634862-242.729253L494.553141 226.829122 100.808452 368.809787l-0.197498 591.968309h51.864228V397.451104l294.592458-97.021707v657.317666H599.149361V290.38974h-0.029676z m0 0" p-id="1165"></path></svg>
