<?xml version="1.0" standalone="no"?><!DOCTYPE svg PUBLIC "-//W3C//DTD SVG 1.1//EN" "http://www.w3.org/Graphics/SVG/1.1/DTD/svg11.dtd"><svg t="1528772896777" class="icon" style="" viewBox="0 0 1024 1024" version="1.1" xmlns="http://www.w3.org/2000/svg" p-id="3575" xmlns:xlink="http://www.w3.org/1999/xlink" width="200" height="200"><defs><style type="text/css"></style></defs><path d="M831.303 494.117l-51.102 0 0-0.814L750.4 493.303l0 0.814L273.6 494.117 273.6 333.2c0-131.452 106.948-238.4 238.4-238.4 114.834 0 210.943 81.63 233.41 189.902l30.191 0C752.742 159.77 643.51 65 512 65c-148.142 0-268.2 120.073-268.2 268.2l0 160.917-8.498 0L118.634 494.117 118.634 959l786.731 0L905.365 494.117 831.303 494.117zM875.566 929.2 148.435 929.2 148.435 523.918l86.868 0L273.6 523.918l476.8 0 80.902 0 44.264 0L875.566 929.2z" p-id="3576"></path></svg>