<?xml version="1.0" standalone="no"?><!DOCTYPE svg PUBLIC "-//W3C//DTD SVG 1.1//EN" "http://www.w3.org/Graphics/SVG/1.1/DTD/svg11.dtd"><svg t="1528882484169" class="icon" style="" viewBox="0 0 1152 1024" version="1.1" xmlns="http://www.w3.org/2000/svg" p-id="874" xmlns:xlink="http://www.w3.org/1999/xlink" width="225" height="200"><defs><style type="text/css"></style></defs><path d="M1139.2 323.2l-169.6-278.4C953.6 16 924.8 0 896 0L259.2 0C230.4 0 201.6 16 185.6 41.6L12.8 320c-19.2 32-16 76.8 9.6 105.6l492.8 572.8c16 16 38.4 25.6 64 25.6 22.4 0 48-9.6 64-25.6l486.4-572.8C1155.2 396.8 1158.4 355.2 1139.2 323.2zM870.4 64 768 352l-153.6-288L870.4 64zM704 384l-256 0 128-256L704 384zM537.6 64l-150.4 288L281.6 64 537.6 64zM224 96l102.4 288L51.2 384 224 96zM128 448l220.8 0 156.8 448L128 448zM576 928l-160-480 320 0L576 928zM646.4 896l156.8-448L1024 448 646.4 896zM825.6 384 928 96l172.8 288L825.6 384z" p-id="875"></path></svg>